<svg xmlns="http://www.w3.org/2000/svg" height="40" viewBox="0 96 960 960" width="40"><path d="M480 878.898 456 856.5q-98.83-90.354-163.529-155.144-64.698-64.791-102.574-114.001-37.876-49.21-52.477-88.879-14.6-39.67-14.6-79.117 0-74.215 50.384-124.659 50.383-50.444 124.565-50.444 53.476 0 100.007 28.539 46.532 28.538 82.224 83.589 37.705-55.692 83.14-83.91 45.434-28.218 99.177-28.218 74.099 0 124.481 50.365 50.382 50.365 50.382 124.463 0 39.701-14.6 79.381-14.601 39.68-52.391 88.736-37.79 49.056-102.587 114.044Q602.804 766.232 504 856.5l-24 22.398Zm0-43.616q96.827-88.492 159.653-151.324 62.826-62.831 99.638-109.754 36.812-46.922 51.132-83.132 14.321-36.21 14.321-71.52 0-61.129-40.897-101.995-40.897-40.865-101.22-40.865-50.442 0-91.438 28.808-40.997 28.808-76.702 88.743h-29.128q-36.321-60.038-77.417-88.794-41.096-28.757-90.462-28.757-59.661 0-100.942 40.761-41.282 40.76-41.282 102.557 0 35.278 14.623 71.429t50.943 83.017q36.32 46.867 99.3 109.693Q383.103 746.975 480 835.282Zm0-279.654Z"/></svg>